<svg width="34" height="29" viewBox="0 0 34 29" fill="none" xmlns="http://www.w3.org/2000/svg">
<path d="M31.875 12.4301H6.6725L14.3863 3.39943C14.7469 2.97645 14.9205 2.43113 14.8687 1.88344C14.8169 1.33575 14.544 0.830549 14.11 0.47898C13.676 0.12741 13.1166 -0.0417319 12.5547 0.00876447C11.9928 0.0592608 11.4744 0.325259 11.1137 0.748241L0.48875 13.1757C0.417266 13.2745 0.353343 13.3784 0.2975 13.4864C0.2975 13.5899 0.2975 13.6521 0.14875 13.7556C0.0524315 13.9931 0.00199988 14.2459 0 14.5013C0.00199988 14.7567 0.0524315 15.0095 0.14875 15.2469C0.14875 15.3505 0.14875 15.4126 0.2975 15.5162C0.353343 15.6242 0.417266 15.728 0.48875 15.8269L11.1137 28.2543C11.3135 28.4882 11.5637 28.6762 11.8465 28.8051C12.1294 28.9339 12.4378 29.0005 12.75 29C13.2465 29.0009 13.7277 28.8324 14.11 28.5236C14.3252 28.3497 14.503 28.1362 14.6334 27.8952C14.7638 27.6542 14.8441 27.3905 14.8698 27.1192C14.8954 26.848 14.8659 26.5744 14.783 26.3143C14.7 26.0541 14.5652 25.8125 14.3863 25.6032L6.6725 16.5725H31.875C32.4386 16.5725 32.9791 16.3543 33.3776 15.9659C33.7761 15.5775 34 15.0506 34 14.5013C34 13.952 33.7761 13.4251 33.3776 13.0367C32.9791 12.6483 32.4386 12.4301 31.875 12.4301Z" fill="#1C1C1C"/>
</svg>
