<svg width="14" height="14" viewBox="0 0 14 14" fill="none" xmlns="http://www.w3.org/2000/svg">
<path d="M10.0833 1.91665V1.66665V0.99998C10.0833 0.889472 10.0394 0.783491 9.96121 0.705352M10.0833 1.91665L9.96121 0.705352M10.0833 1.91665H10.3333M10.0833 1.91665H10.3333M9.96121 0.705352C9.88307 0.627212 9.77709 0.583313 9.66658 0.583313C9.55608 0.583313 9.4501 0.627212 9.37196 0.705352M9.96121 0.705352L9.37196 0.705352M9.37196 0.705352C9.29382 0.783492 9.24992 0.889473 9.24992 0.99998V1.66665M9.37196 0.705352L9.24992 1.66665M9.37196 0.705352L9.19518 0.528575L9.37196 0.705352ZM10.3333 1.91665H11.6666C12.1307 1.91665 12.5758 2.10102 12.904 2.42921C13.2322 2.7574 13.4166 3.20252 13.4166 3.66665V11.6666C13.4166 12.1308 13.2322 12.5759 12.904 12.9041C12.5758 13.2323 12.1307 13.4166 11.6666 13.4166H2.33325C1.86912 13.4166 1.424 13.2323 1.09582 12.9041C0.767626 12.5759 0.583252 12.1308 0.583252 11.6666V3.66665C0.583252 3.20252 0.767626 2.7574 1.09582 2.42921C1.424 2.10102 1.86912 1.91665 2.33325 1.91665H3.66658H3.91658V1.66665V0.99998C3.91658 0.889473 3.96048 0.783492 4.03862 0.705352C4.11676 0.627212 4.22274 0.583313 4.33325 0.583313C4.44376 0.583313 4.54974 0.627212 4.62788 0.705352C4.70602 0.783492 4.74992 0.889473 4.74992 0.99998V1.66665V1.91665H4.99992H8.99992H9.24992M10.3333 1.91665H9.24992M9.24992 1.91665V1.66665M9.24992 1.91665V1.66665M1.68507 12.3148L1.86185 12.1381L1.68507 12.3148C1.85698 12.4867 2.09014 12.5833 2.33325 12.5833H11.6666C11.9097 12.5833 12.1429 12.4867 12.3148 12.3148L12.138 12.1381L12.3148 12.3148C12.4867 12.1429 12.5833 11.9098 12.5833 11.6666V6.99998V6.74998H12.3333H1.66659H1.41659V6.99998V11.6666C1.41659 11.9098 1.51316 12.1429 1.68507 12.3148ZM12.3333 5.91665H12.5833V5.66665V3.66665C12.5833 3.42353 12.4867 3.19037 12.3148 3.01847L12.138 3.19524L12.3148 3.01846C12.1429 2.84656 11.9097 2.74998 11.6666 2.74998H10.3333H10.0833V2.99998V3.66665C10.0833 3.77715 10.0394 3.88313 9.96121 3.96127C9.88307 4.03941 9.77709 4.08331 9.66658 4.08331C9.55608 4.08331 9.4501 4.03941 9.37196 3.96127C9.29382 3.88313 9.24992 3.77715 9.24992 3.66665V2.99998V2.74998H8.99992H4.99992H4.74992V2.99998V3.66665C4.74992 3.77715 4.70602 3.88313 4.62788 3.96127C4.54974 4.03941 4.44376 4.08331 4.33325 4.08331C4.22274 4.08331 4.11676 4.03941 4.03862 3.96127C3.96048 3.88313 3.91658 3.77715 3.91658 3.66665V2.99998V2.74998H3.66658H2.33325C2.09014 2.74998 1.85698 2.84656 1.68507 3.01846C1.51316 3.19037 1.41659 3.42353 1.41659 3.66665V5.66665V5.91665H1.66659H12.3333Z" fill="#7E7E7E" stroke="#7E7E7E" stroke-width="0.5"/>
</svg>
