<svg width="14" height="14" viewBox="0 0 14 14" fill="none" xmlns="http://www.w3.org/2000/svg">
<path d="M0 6.93527V6.91617C0.175732 4.70021 0.995816 3.03824 2.4212 1.98757C3.82706 0.917796 5.35007 0.402013 7.00976 0.402013C8.74756 0.382909 10.3682 0.956002 11.8131 2.10219C13.2775 3.22927 14 4.91034 14 7.08809V7.22182C14 9.41867 13.2775 11.0615 11.8131 12.1886C10.3487 13.3348 8.72803 13.9079 6.99024 13.9079H6.91213C5.21339 13.8888 3.65132 13.3157 2.20642 12.1695C0.761506 11.0424 0.0195258 9.30405 0 6.93527ZM6.5802 3.93608V0.917796H6.11158C6.01395 1.03241 5.93584 1.16614 5.85774 1.28075C5.77964 1.39537 5.70153 1.50999 5.62343 1.64371C5.54533 1.75833 5.4477 1.91116 5.38912 2.02578C5.31102 2.14039 5.25244 2.25501 5.19386 2.38873C5.07671 2.57977 4.97908 2.7708 4.90098 2.94272C4.80335 3.11465 4.72524 3.28658 4.66667 3.4394C4.78382 3.51582 4.9205 3.61133 5.07671 3.66864C5.25244 3.72595 5.42817 3.78326 5.60391 3.82147C5.79916 3.85967 5.9749 3.87878 6.1311 3.89788C6.30683 3.91698 6.46304 3.93608 6.5802 3.93608ZM7.40028 0.917796V3.91698C7.49791 3.91698 7.61506 3.93608 7.73222 3.91698C7.84937 3.91698 7.98605 3.89788 8.10321 3.87878C8.31799 3.84057 8.57183 3.78326 8.76709 3.72595C8.98187 3.64954 9.17713 3.55402 9.31381 3.4394C9.0795 2.88541 8.82566 2.44604 8.57183 2.02578C8.31799 1.60551 8.0251 1.24255 7.71269 0.936899V0.917796H7.40028ZM5.29149 1.08972V1.07062C5.15481 1.12793 5.01813 1.22345 4.86192 1.28075C4.72524 1.33806 4.54951 1.41448 4.41283 1.49089C4.13947 1.62461 3.86611 1.77744 3.59275 1.94936C3.33891 2.12129 3.08508 2.31232 2.87029 2.50335C2.9484 2.57977 3.04603 2.65618 3.12413 2.71349C3.20223 2.7708 3.29986 2.84721 3.39749 2.92362C3.47559 2.96183 3.57322 3.01914 3.67085 3.09555C3.76848 3.15286 3.88563 3.22927 4.00279 3.30568C4.159 2.96183 4.3152 2.59887 4.51046 2.27412C4.70572 1.93026 4.9205 1.60551 5.13529 1.31896C5.15481 1.28075 5.17434 1.24255 5.21339 1.20434C5.23291 1.18524 5.25244 1.12793 5.29149 1.08972ZM11.2664 2.50335V2.48425C10.7782 2.12129 10.3487 1.81564 9.91911 1.62461C9.48954 1.43358 9.05997 1.24255 8.66946 1.08972C8.98187 1.39537 9.25523 1.77744 9.43096 2.14039C9.62622 2.52246 9.82148 2.92362 9.97768 3.30568C10.0558 3.26748 10.1534 3.22927 10.2706 3.15286C10.3682 3.09555 10.5049 3.03824 10.622 2.98093C10.7392 2.90452 10.8368 2.82811 10.954 2.75169C11.0711 2.65618 11.1883 2.57977 11.2664 2.50335ZM10.9344 6.76334H13.1799C13.1799 6.05653 13.0237 5.38792 12.7308 4.70021C12.4575 4.0316 12.0669 3.47761 11.5788 3.00003V2.98093C11.4812 3.13375 11.3445 3.26748 11.2078 3.36299C11.0516 3.45851 10.9149 3.53492 10.7587 3.61133C10.6611 3.66864 10.5635 3.74505 10.4658 3.78326C10.3682 3.84057 10.2315 3.87878 10.1339 3.93608C10.212 4.08891 10.2901 4.26084 10.3682 4.41366C10.4268 4.58559 10.5244 4.77662 10.5635 4.94855C10.6806 5.2542 10.7587 5.57895 10.8368 5.9037C10.8954 6.19025 10.9344 6.4959 10.9344 6.76334ZM3.86611 3.93608V3.91698C3.7099 3.84057 3.53417 3.78326 3.39749 3.70685C3.26081 3.61133 3.12413 3.51582 3.00697 3.4394C2.88982 3.38209 2.77266 3.30568 2.67503 3.22927C2.57741 3.15286 2.4993 3.07645 2.4212 3.00003C1.91353 3.47761 1.54254 4.0125 1.30823 4.6429C1.05439 5.2733 0.878661 5.98012 0.800558 6.74424H3.20223C3.20223 6.20935 3.28033 5.69357 3.41702 5.17779C3.53417 4.6429 3.7099 4.24173 3.86611 3.93608ZM6.5802 6.74424V4.54738C6.42399 4.56649 6.22873 4.56649 6.053 4.54738C5.85774 4.52828 5.66248 4.47097 5.48675 4.41366C5.33054 4.37546 5.13529 4.33725 4.97908 4.27994C4.80335 4.24173 4.62761 4.16532 4.49093 4.08891C4.37378 4.27994 4.27615 4.50918 4.19805 4.75752C4.10042 4.98675 4.04184 5.23509 3.98326 5.46433C3.94421 5.69357 3.92469 5.94191 3.90516 6.15204C3.88563 6.36218 3.86611 6.57231 3.86611 6.74424H6.5802ZM7.40028 4.58559V6.74424H10.2901C10.2901 6.62962 10.2901 6.4959 10.2706 6.34307C10.2315 6.20935 10.212 6.03742 10.1925 5.8846C10.1339 5.65536 10.0753 5.40702 9.99721 5.17779C9.91911 4.96765 9.841 4.75752 9.74337 4.58559C9.70432 4.49007 9.66527 4.37546 9.62622 4.29904C9.56764 4.20353 9.50907 4.14622 9.47001 4.08891C9.25523 4.24173 8.96234 4.33725 8.61088 4.41366C8.27894 4.49007 7.88842 4.56649 7.53696 4.58559H7.40028ZM3.20223 7.37464H0.800558C0.800558 7.69939 0.859135 8.06235 0.956764 8.50172C1.05439 8.9602 1.24965 9.38047 1.46444 9.83894C1.56206 10.0682 1.67922 10.2974 1.79637 10.5267C1.93305 10.7368 2.08926 10.966 2.24547 11.1762C2.36262 11.0997 2.47978 11.0424 2.57741 10.9851C2.69456 10.9278 2.83124 10.8514 2.9484 10.7941C3.08508 10.7368 3.22176 10.6795 3.37796 10.6031C3.51464 10.5458 3.69038 10.4693 3.86611 10.3929C3.7099 9.91535 3.53417 9.45688 3.41702 8.94109C3.28033 8.44441 3.20223 7.94773 3.20223 7.39374V7.37464ZM6.5802 9.6097V7.37464H3.86611C3.86611 7.52747 3.88563 7.7567 3.92469 7.98594C3.94421 8.21518 4.00279 8.46352 4.04184 8.71186C4.11994 8.9793 4.17852 9.24674 4.25662 9.47598C4.33473 9.70522 4.41283 9.89625 4.49093 10.0682C4.8424 9.93445 5.19386 9.83894 5.42817 9.78163C5.68201 9.70522 5.91632 9.64791 6.15063 9.62881H6.36541C6.44351 9.6097 6.52162 9.6097 6.5802 9.6097ZM7.40028 7.37464V9.5906C7.53696 9.6097 7.69317 9.62881 7.84937 9.64791C8.0251 9.66701 8.23989 9.70522 8.41562 9.74342L8.70851 9.80073C8.80614 9.83894 8.92329 9.85804 9.02092 9.87715C9.13807 9.91535 9.25523 9.93445 9.37239 9.97266C9.47001 10.0109 9.56764 10.03 9.64575 10.0682C9.89958 9.43777 10.0558 8.92199 10.1534 8.48262C10.251 8.06235 10.2901 7.69939 10.2901 7.39374V7.37464H7.40028ZM13.1799 7.39374V7.37464H10.9344V7.48926C10.9149 7.85222 10.8563 8.27249 10.7782 8.71186C10.7001 9.13212 10.5244 9.62881 10.2901 10.2401C10.6025 10.3929 10.8954 10.5458 11.1297 10.6986C11.364 10.8514 11.5788 11.0233 11.735 11.1762C12.0669 10.8514 12.3598 10.412 12.6137 9.83894C12.8675 9.28495 13.0432 8.71186 13.1409 8.10056C13.1604 7.98594 13.1604 7.87132 13.1799 7.7567V7.39374ZM6.5802 13.2011V10.221C6.09205 10.2974 5.68201 10.3929 5.3696 10.4693C5.05718 10.5458 4.82287 10.6222 4.66667 10.6986C4.78382 10.9851 4.90098 11.2335 5.01813 11.4627C5.13529 11.6728 5.27197 11.9021 5.38912 12.0931C5.42817 12.1695 5.50628 12.2459 5.56485 12.3414C5.62343 12.4179 5.66248 12.5134 5.72106 12.5898C5.77964 12.6853 5.83821 12.7999 5.89679 12.9145C5.9749 13.0101 6.03347 13.1247 6.11158 13.2011H6.5802ZM7.40028 13.2011H7.84937C8.0251 13.0674 8.20084 12.8763 8.33752 12.6662C8.49372 12.4561 8.66946 12.2077 8.78661 11.9976C8.92329 11.7492 9.05997 11.52 9.17713 11.2908C9.29428 11.0615 9.39191 10.8514 9.47001 10.6986C9.25523 10.6222 8.96234 10.5458 8.66946 10.4693C8.37657 10.3929 7.96653 10.3165 7.40028 10.2401V13.2011ZM11.2664 11.6346V11.6155C11.2273 11.5582 11.1492 11.4818 11.0907 11.4245C11.0321 11.3672 10.9344 11.2908 10.8368 11.2335C10.7587 11.1762 10.6611 11.1188 10.5439 11.0615C10.4268 11.0042 10.2706 10.9278 10.1339 10.8514C10.0558 11.0042 9.91911 11.2717 9.72385 11.6346C9.54812 11.9976 9.2357 12.437 8.84519 12.9145C9.33333 12.8381 9.7629 12.6662 10.1534 12.437C10.583 12.2268 10.954 11.9403 11.2664 11.6346ZM4.00279 11.0233V11.0042C3.86611 11.0806 3.65132 11.1762 3.43654 11.2717C3.20223 11.3672 2.9484 11.4818 2.71409 11.6346C2.85077 11.7492 2.98745 11.8639 3.1046 11.9403C3.22176 12.0358 3.35844 12.1122 3.47559 12.1886C3.69038 12.3223 3.94421 12.4561 4.19805 12.5707C4.45188 12.6853 4.7643 12.7999 5.15481 12.9145C5.01813 12.7617 4.9205 12.5707 4.82287 12.4179C4.72524 12.265 4.60809 12.1122 4.51046 11.9594C4.41283 11.8066 4.33473 11.6346 4.25662 11.4818C4.159 11.329 4.08089 11.1762 4.00279 11.0233Z" fill="#7E7E7E"/>
</svg>
