<svg width="14" height="16" viewBox="0 0 14 16" fill="none" xmlns="http://www.w3.org/2000/svg">
<path d="M7.00001 15.875L2.25476 10.2787C2.18882 10.1947 2.12357 10.1101 2.05901 10.025C1.24843 8.95725 0.810542 7.65306 0.812507 6.3125C0.812507 4.67147 1.4644 3.09766 2.62478 1.93728C3.78516 0.776896 5.35898 0.125 7.00001 0.125C8.64103 0.125 10.2148 0.776896 11.3752 1.93728C12.5356 3.09766 13.1875 4.67147 13.1875 6.3125C13.1895 7.65245 12.7518 8.95605 11.9416 10.0233L11.941 10.025C11.941 10.025 11.7723 10.2466 11.7469 10.2764L7.00001 15.875ZM2.95676 9.34719C2.95788 9.34719 3.08838 9.52044 3.11819 9.55756L7.00001 14.1358L10.8869 9.55137C10.9116 9.52044 11.0433 9.34606 11.0438 9.3455C11.706 8.47313 12.0638 7.4077 12.0625 6.3125C12.0625 4.96984 11.5291 3.68217 10.5797 2.73277C9.63033 1.78337 8.34266 1.25 7.00001 1.25C5.65735 1.25 4.36968 1.78337 3.42028 2.73277C2.47088 3.68217 1.93751 4.96984 1.93751 6.3125C1.93633 7.40838 2.29457 8.47442 2.95732 9.34719H2.95676Z" fill="#7E7E7E"/>
</svg>
