<svg width="14" height="11" viewBox="0 0 14 11" fill="none" xmlns="http://www.w3.org/2000/svg">
<path d="M13.125 0.126343H0.875C0.642936 0.126343 0.420376 0.219514 0.256282 0.385361C0.0921872 0.551207 0 0.776144 0 1.01069V9.85412C0 10.0887 0.0921872 10.3136 0.256282 10.4794C0.420376 10.6453 0.642936 10.7385 0.875 10.7385H13.125C13.3571 10.7385 13.5796 10.6453 13.7437 10.4794C13.9078 10.3136 14 10.0887 14 9.85412V1.01069C14 0.776144 13.9078 0.551207 13.7437 0.385361C13.5796 0.219514 13.3571 0.126343 13.125 0.126343ZM12.4513 9.85412H1.60125L4.66375 6.6528L4.03375 6.03818L0.875 9.3412V1.68279L6.31313 7.15245C6.47707 7.31716 6.69884 7.40961 6.93 7.40961C7.16116 7.40961 7.38293 7.31716 7.54688 7.15245L13.125 1.54571V9.28372L9.905 6.02934L9.28813 6.6528L12.4513 9.85412ZM1.44813 1.01069H12.4162L6.93 6.52457L1.44813 1.01069Z" fill="#7E7E7E"/>
</svg>
