<svg width="16" height="16" viewBox="0 0 16 16" fill="none" xmlns="http://www.w3.org/2000/svg">
<path d="M5.5 13V15" stroke="#7E7E7E" stroke-linecap="round" stroke-linejoin="round"/>
<path d="M2.5 1H8.5C8.76522 1 9.01957 1.10536 9.20711 1.29289C9.39464 1.48043 9.5 1.73478 9.5 2V14.875C9.5 14.9082 9.48683 14.9399 9.46339 14.9634C9.43995 14.9868 9.40815 15 9.375 15H1.5V2C1.5 1.73478 1.60536 1.48043 1.79289 1.29289C1.98043 1.10536 2.23478 1 2.5 1V1Z" stroke="#7E7E7E" stroke-linecap="round" stroke-linejoin="round"/>
<path d="M10 6H13.5C13.7652 6 14.0196 6.10536 14.2071 6.29289C14.3946 6.48043 14.5 6.73478 14.5 7V15H9.5V6.5C9.5 6.36739 9.55268 6.24021 9.64645 6.14645C9.74021 6.05268 9.86739 6 10 6Z" stroke="#7E7E7E" stroke-linecap="round" stroke-linejoin="round"/>
<path d="M3.06509 13.496C2.96153 13.5095 2.85634 13.4903 2.76426 13.441C2.67219 13.3917 2.59786 13.3148 2.55171 13.2211C2.50556 13.1275 2.48991 13.0217 2.50694 12.9186C2.52397 12.8156 2.57284 12.7205 2.64669 12.6466C2.72054 12.5728 2.81566 12.5239 2.91869 12.5069C3.02173 12.4898 3.12751 12.5055 3.2212 12.5517C3.31488 12.5978 3.39177 12.6721 3.44105 12.7642C3.49034 12.8563 3.50957 12.9615 3.49602 13.065C3.48173 13.1743 3.43173 13.2758 3.3538 13.3537C3.27587 13.4317 3.17437 13.4817 3.06509 13.496Z" fill="#7E7E7E"/>
<path d="M3.06509 10.996C2.96153 11.0095 2.85634 10.9903 2.76426 10.941C2.67219 10.8917 2.59786 10.8148 2.55171 10.7211C2.50556 10.6275 2.48991 10.5217 2.50694 10.4186C2.52397 10.3156 2.57284 10.2205 2.64669 10.1466C2.72054 10.0728 2.81566 10.0239 2.91869 10.0069C3.02173 9.98985 3.12751 10.0055 3.2212 10.0517C3.31488 10.0978 3.39177 10.1721 3.44105 10.2642C3.49034 10.3563 3.50957 10.4615 3.49602 10.565C3.48173 10.6743 3.43173 10.7758 3.3538 10.8537C3.27587 10.9317 3.17437 10.9817 3.06509 10.996Z" fill="#7E7E7E"/>
<path d="M3.06509 8.49596C2.96153 8.5095 2.85634 8.49028 2.76426 8.44099C2.67219 8.3917 2.59786 8.31482 2.55171 8.22114C2.50556 8.12745 2.48991 8.02167 2.50694 7.91863C2.52397 7.81559 2.57284 7.72048 2.64669 7.64663C2.72054 7.57278 2.81566 7.52391 2.91869 7.50688C3.02173 7.48985 3.12751 7.5055 3.2212 7.55165C3.31488 7.5978 3.39177 7.67213 3.44105 7.7642C3.49034 7.85628 3.50957 7.96147 3.49602 8.06502C3.48173 8.17431 3.43173 8.2758 3.3538 8.35374C3.27587 8.43167 3.17437 8.48167 3.06509 8.49596Z" fill="#7E7E7E"/>
<path d="M3.06509 5.99596C2.96153 6.0095 2.85634 5.99028 2.76426 5.94099C2.67219 5.8917 2.59786 5.81482 2.55171 5.72114C2.50556 5.62745 2.48991 5.52167 2.50694 5.41863C2.52397 5.31559 2.57284 5.22048 2.64669 5.14663C2.72054 5.07278 2.81566 5.02391 2.91869 5.00688C3.02173 4.98985 3.12751 5.0055 3.2212 5.05165C3.31488 5.0978 3.39177 5.17213 3.44105 5.2642C3.49034 5.35628 3.50957 5.46147 3.49602 5.56502C3.48173 5.67431 3.43173 5.7758 3.3538 5.85374C3.27587 5.93167 3.17437 5.98167 3.06509 5.99596Z" fill="#7E7E7E"/>
<path d="M3.06509 3.49596C2.96153 3.5095 2.85634 3.49028 2.76426 3.44099C2.67219 3.3917 2.59786 3.31482 2.55171 3.22114C2.50556 3.12745 2.48991 3.02167 2.50694 2.91863C2.52397 2.81559 2.57284 2.72048 2.64669 2.64663C2.72054 2.57278 2.81566 2.52391 2.91869 2.50688C3.02173 2.48985 3.12751 2.5055 3.2212 2.55165C3.31488 2.5978 3.39177 2.67213 3.44105 2.7642C3.49034 2.85628 3.50957 2.96147 3.49602 3.06502C3.48173 3.17431 3.43173 3.2758 3.3538 3.35374C3.27587 3.43167 3.17437 3.48167 3.06509 3.49596Z" fill="#7E7E7E"/>
<path d="M5.56508 10.996C5.46153 11.0095 5.35634 10.9903 5.26426 10.941C5.17219 10.8917 5.09786 10.8148 5.05171 10.7211C5.00556 10.6275 4.98991 10.5217 5.00694 10.4186C5.02397 10.3156 5.07284 10.2205 5.14669 10.1466C5.22054 10.0728 5.31565 10.0239 5.41869 10.0069C5.52173 9.98985 5.62751 10.0055 5.7212 10.0517C5.81488 10.0978 5.89176 10.1721 5.94105 10.2642C5.99034 10.3563 6.00957 10.4615 5.99602 10.565C5.98173 10.6743 5.93173 10.7758 5.8538 10.8537C5.77587 10.9317 5.67437 10.9817 5.56508 10.996Z" fill="#7E7E7E"/>
<path d="M5.56508 8.49596C5.46153 8.5095 5.35634 8.49028 5.26426 8.44099C5.17219 8.3917 5.09786 8.31482 5.05171 8.22114C5.00556 8.12745 4.98991 8.02167 5.00694 7.91863C5.02397 7.81559 5.07284 7.72048 5.14669 7.64663C5.22054 7.57278 5.31565 7.52391 5.41869 7.50688C5.52173 7.48985 5.62751 7.5055 5.7212 7.55165C5.81488 7.5978 5.89176 7.67213 5.94105 7.7642C5.99034 7.85628 6.00957 7.96147 5.99602 8.06502C5.98173 8.17431 5.93173 8.2758 5.8538 8.35374C5.77587 8.43167 5.67437 8.48167 5.56508 8.49596Z" fill="#7E7E7E"/>
<path d="M5.56508 5.99596C5.46153 6.0095 5.35634 5.99028 5.26426 5.94099C5.17219 5.8917 5.09786 5.81482 5.05171 5.72114C5.00556 5.62745 4.98991 5.52167 5.00694 5.41863C5.02397 5.31559 5.07284 5.22048 5.14669 5.14663C5.22054 5.07278 5.31565 5.02391 5.41869 5.00688C5.52173 4.98985 5.62751 5.0055 5.7212 5.05165C5.81488 5.0978 5.89176 5.17213 5.94105 5.2642C5.99034 5.35628 6.00957 5.46147 5.99602 5.56502C5.98173 5.67431 5.93173 5.7758 5.8538 5.85374C5.77587 5.93167 5.67437 5.98167 5.56508 5.99596Z" fill="#7E7E7E"/>
<path d="M5.56508 3.49596C5.46153 3.5095 5.35634 3.49028 5.26426 3.44099C5.17219 3.3917 5.09786 3.31482 5.05171 3.22114C5.00556 3.12745 4.98991 3.02167 5.00694 2.91863C5.02397 2.81559 5.07284 2.72048 5.14669 2.64663C5.22054 2.57278 5.31565 2.52391 5.41869 2.50688C5.52173 2.48985 5.62751 2.5055 5.7212 2.55165C5.81488 2.5978 5.89176 2.67213 5.94105 2.7642C5.99034 2.85628 6.00957 2.96147 5.99602 3.06502C5.98173 3.17431 5.93173 3.2758 5.8538 3.35374C5.77587 3.43167 5.67437 3.48167 5.56508 3.49596Z" fill="#7E7E7E"/>
<path d="M8.06508 13.496C7.96153 13.5095 7.85634 13.4903 7.76426 13.441C7.67219 13.3917 7.59786 13.3148 7.55171 13.2211C7.50556 13.1275 7.48991 13.0217 7.50694 12.9186C7.52397 12.8156 7.57284 12.7205 7.64669 12.6466C7.72054 12.5728 7.81565 12.5239 7.91869 12.5069C8.02173 12.4898 8.12751 12.5055 8.2212 12.5517C8.31488 12.5978 8.39176 12.6721 8.44105 12.7642C8.49034 12.8563 8.50957 12.9615 8.49602 13.065C8.48173 13.1743 8.43173 13.2758 8.3538 13.3537C8.27587 13.4317 8.17437 13.4817 8.06508 13.496Z" fill="#7E7E7E"/>
<path d="M8.06508 10.996C7.96153 11.0095 7.85634 10.9903 7.76426 10.941C7.67219 10.8917 7.59786 10.8148 7.55171 10.7211C7.50556 10.6275 7.48991 10.5217 7.50694 10.4186C7.52397 10.3156 7.57284 10.2205 7.64669 10.1466C7.72054 10.0728 7.81565 10.0239 7.91869 10.0069C8.02173 9.98985 8.12751 10.0055 8.2212 10.0517C8.31488 10.0978 8.39176 10.1721 8.44105 10.2642C8.49034 10.3563 8.50957 10.4615 8.49602 10.565C8.48173 10.6743 8.43173 10.7758 8.3538 10.8537C8.27587 10.9317 8.17437 10.9817 8.06508 10.996Z" fill="#7E7E7E"/>
<path d="M8.06508 8.49596C7.96153 8.5095 7.85634 8.49028 7.76426 8.44099C7.67219 8.3917 7.59786 8.31482 7.55171 8.22114C7.50556 8.12745 7.48991 8.02167 7.50694 7.91863C7.52397 7.81559 7.57284 7.72048 7.64669 7.64663C7.72054 7.57278 7.81565 7.52391 7.91869 7.50688C8.02173 7.48985 8.12751 7.5055 8.2212 7.55165C8.31488 7.5978 8.39176 7.67213 8.44105 7.7642C8.49034 7.85628 8.50957 7.96147 8.49602 8.06502C8.48173 8.17431 8.43173 8.2758 8.3538 8.35374C8.27587 8.43167 8.17437 8.48167 8.06508 8.49596Z" fill="#504E4E"/>
<path d="M8.35409 5.85397C8.54875 5.65932 8.54795 5.34293 8.35233 5.1473C8.1567 4.95168 7.84031 4.95089 7.64566 5.14554C7.45101 5.34019 7.4518 5.65657 7.64743 5.8522C7.84306 6.04783 8.15944 6.04862 8.35409 5.85397Z" fill="#7E7E7E"/>
<path d="M8.06508 3.49596C7.96153 3.5095 7.85634 3.49028 7.76426 3.44099C7.67219 3.3917 7.59786 3.31482 7.55171 3.22114C7.50556 3.12745 7.48991 3.02167 7.50694 2.91863C7.52397 2.81559 7.57284 2.72048 7.64669 2.64663C7.72054 2.57278 7.81565 2.52391 7.91869 2.50688C8.02173 2.48985 8.12751 2.5055 8.2212 2.55165C8.31488 2.5978 8.39176 2.67213 8.44105 2.7642C8.49034 2.85628 8.50957 2.96147 8.49602 3.06502C8.48173 3.17431 8.43173 3.2758 8.3538 3.35374C8.27587 3.43167 8.17437 3.48167 8.06508 3.49596Z" fill="#7E7E7E"/>
<path d="M12.5 12.5C12.4011 12.5 12.3044 12.5293 12.2222 12.5843C12.14 12.6392 12.0759 12.7173 12.0381 12.8087C12.0002 12.9 11.9903 13.0006 12.0096 13.0975C12.0289 13.1945 12.0765 13.2836 12.1464 13.3536C12.2164 13.4235 12.3055 13.4711 12.4025 13.4904C12.4994 13.5097 12.6 13.4998 12.6913 13.4619C12.7827 13.4241 12.8608 13.36 12.9157 13.2778C12.9707 13.1956 13 13.0989 13 13C13 12.8674 12.9473 12.7402 12.8536 12.6464C12.7598 12.5527 12.6326 12.5 12.5 12.5Z" fill="#7E7E7E"/>
<path d="M12.5 10C12.4011 10 12.3044 10.0293 12.2222 10.0843C12.14 10.1392 12.0759 10.2173 12.0381 10.3087C12.0002 10.4 11.9903 10.5006 12.0096 10.5975C12.0289 10.6945 12.0765 10.7836 12.1464 10.8536C12.2164 10.9235 12.3055 10.9711 12.4025 10.9904C12.4994 11.0097 12.6 10.9998 12.6913 10.9619C12.7827 10.9241 12.8608 10.86 12.9157 10.7778C12.9707 10.6956 13 10.5989 13 10.5C13 10.3674 12.9473 10.2402 12.8536 10.1464C12.7598 10.0527 12.6326 10 12.5 10Z" fill="#7E7E7E"/>
<path d="M12.5 7.5C12.4011 7.5 12.3044 7.52932 12.2222 7.58427C12.14 7.63921 12.0759 7.7173 12.0381 7.80866C12.0002 7.90002 11.9903 8.00056 12.0096 8.09755C12.0289 8.19454 12.0765 8.28363 12.1464 8.35355C12.2164 8.42348 12.3055 8.4711 12.4025 8.49039C12.4994 8.50969 12.6 8.49978 12.6913 8.46194C12.7827 8.4241 12.8608 8.36001 12.9157 8.27779C12.9707 8.19556 13 8.09889 13 8C13 7.86739 12.9473 7.74021 12.8536 7.64645C12.7598 7.55268 12.6326 7.5 12.5 7.5Z" fill="#7E7E7E"/>
<path d="M10.5 12.5C10.4011 12.5 10.3044 12.5293 10.2222 12.5843C10.14 12.6392 10.0759 12.7173 10.0381 12.8087C10.0002 12.9 9.99031 13.0006 10.0096 13.0975C10.0289 13.1945 10.0765 13.2836 10.1464 13.3536C10.2164 13.4235 10.3055 13.4711 10.4025 13.4904C10.4994 13.5097 10.6 13.4998 10.6913 13.4619C10.7827 13.4241 10.8608 13.36 10.9157 13.2778C10.9707 13.1956 11 13.0989 11 13C11 12.8674 10.9473 12.7402 10.8536 12.6464C10.7598 12.5527 10.6326 12.5 10.5 12.5Z" fill="#7E7E7E"/>
<path d="M10.5 10C10.4011 10 10.3044 10.0293 10.2222 10.0843C10.14 10.1392 10.0759 10.2173 10.0381 10.3087C10.0002 10.4 9.99031 10.5006 10.0096 10.5975C10.0289 10.6945 10.0765 10.7836 10.1464 10.8536C10.2164 10.9235 10.3055 10.9711 10.4025 10.9904C10.4994 11.0097 10.6 10.9998 10.6913 10.9619C10.7827 10.9241 10.8608 10.86 10.9157 10.7778C10.9707 10.6956 11 10.5989 11 10.5C11 10.3674 10.9473 10.2402 10.8536 10.1464C10.7598 10.0527 10.6326 10 10.5 10Z" fill="#7E7E7E"/>
<path d="M10.5 7.5C10.4011 7.5 10.3044 7.52932 10.2222 7.58427C10.14 7.63921 10.0759 7.7173 10.0381 7.80866C10.0002 7.90002 9.99031 8.00056 10.0096 8.09755C10.0289 8.19454 10.0765 8.28363 10.1464 8.35355C10.2164 8.42348 10.3055 8.4711 10.4025 8.49039C10.4994 8.50969 10.6 8.49978 10.6913 8.46194C10.7827 8.4241 10.8608 8.36001 10.9157 8.27779C10.9707 8.19556 11 8.09889 11 8C11 7.86739 10.9473 7.74021 10.8536 7.64645C10.7598 7.55268 10.6326 7.5 10.5 7.5Z" fill="#343333"/>
</svg>
