<svg width="15" height="13" viewBox="0 0 15 13" fill="none" xmlns="http://www.w3.org/2000/svg">
<path d="M4.04072 9.15903L4.03992 9.15876L4.04072 9.15903ZM4.04072 9.15903L4.32031 9.25248L4.04072 9.15903ZM14.9773 1.95502H14.78H14.7038V2.06693L14.7047 2.06786L14.7048 2.06791L14.7047 2.0679L14.7038 2.06695V2.06772V2.0686L14.7044 2.06836L14.7044 2.06835L14.705 2.06812M14.705 2.06812L14.705 2.06811M14.705 2.06812L14.9119 2.27563L14.705 2.06811M14.705 2.06811L14.705 2.06811L14.705 2.06811ZM12.0873 1.56456L11.6989 1.95193C11.6005 1.77695 11.4828 1.61398 11.3483 1.46594L11.7676 1.04771C11.8846 1.17409 11.9915 1.30972 12.0873 1.45337V1.56456ZM9.40552 0.590892C9.40692 0.590911 9.40831 0.590932 9.40971 0.590953L9.41244 0.0900449L9.41293 4.89272e-05L9.40581 0.517229L9.40479 0.590889C9.40503 0.59089 9.40528 0.590891 9.40552 0.590892ZM6.5658 1.61408C6.46322 1.78806 6.37708 1.97099 6.30839 2.16046C6.37653 2.17761 6.44523 2.19361 6.51445 2.2084L6.63883 1.63037C6.61444 1.62512 6.5901 1.61969 6.5658 1.61408Z" fill="#7E7E7E" stroke="#7E7E7E" stroke-width="5"/>
</svg>

